<?xml version="1.0" encoding="UTF-8"?>
<svg version="1.1" xmlns="http://www.w3.org/2000/svg" width="817" height="817">
<path d="M0 0 C269.61 0 539.22 0 817 0 C817 269.61 817 539.22 817 817 C547.39 817 277.78 817 0 817 C0 547.39 0 277.78 0 0 Z " fill="#000000" transform="translate(0,0)"/>
<path d="M0 0 C9.38670458 -0.5830432 18.76708085 -1.02512447 28.16802311 -1.2953043 C32.53597244 -1.4251116 36.89144388 -1.60034746 41.25219727 -1.88598633 C69.23963295 -3.67091102 69.23963295 -3.67091102 76.96148682 2.28372192 C81.9648154 8.13860475 84.95485122 14.78260588 87.74386597 21.90670776 C89.40745036 26.00336667 91.58175914 29.60139542 93.953125 33.31640625 C94.67599533 34.52427203 95.39434034 35.73485875 96.10791016 36.94824219 C97.61721314 39.49493483 99.12727984 42.04117073 100.63818359 44.58691406 C104.305906 50.76742698 107.97071569 56.94965631 111.63179016 63.1341095 C113.62851715 66.50667158 115.62644396 69.87852153 117.625 73.25 C118.01607941 73.9098288 118.40715881 74.56965759 118.81008911 75.2494812 C125.20193327 86.02814754 131.67431819 96.75596439 138.21923828 107.44238281 C139.50323107 109.54451484 140.77979775 111.65120354 142.04833984 113.76269531 C143.4451405 116.0796301 144.86190765 118.37575827 146.29931641 120.66699219 C147.05065906 121.89987036 147.80116758 123.13325731 148.55078125 124.3671875 C149.23438721 125.4691748 149.91799316 126.57116211 150.62231445 127.70654297 C152.59997927 132.43429389 151.94310714 135.497308 150.15959167 140.23016357 C149.07702976 142.80550053 147.92410145 145.33802529 146.74609375 147.87109375 C146.32578384 148.793423 145.90547394 149.71575226 145.47242737 150.66603088 C144.13588896 153.59380246 142.78691793 156.5156457 141.4375 159.4375 C140.52586432 161.42865739 139.61504797 163.42019013 138.70507812 165.41210938 C136.47952031 170.27912553 134.24374334 175.14134295 132 180 C133.66458252 180.1865918 133.66458252 180.1865918 135.36279297 180.37695312 C143.35079274 181.38030005 151.20805083 183.16086988 159.07275391 184.85351562 C161.10815937 185.28462694 163.14667509 185.70130566 165.18798828 186.10351562 C168.15731569 186.69021459 171.11305871 187.32426578 174.0703125 187.96875 C174.97669464 188.13789917 175.88307678 188.30704834 176.81692505 188.48132324 C181.89387692 189.6474374 184.45363547 190.95753951 187.41186523 195.33398438 C188.30061925 196.87458996 189.1660743 198.42903941 190 200 C190.60062256 200.99386719 191.20124512 201.98773438 191.82006836 203.01171875 C192.32159424 203.89472656 192.82312012 204.77773438 193.33984375 205.6875 C193.91992188 206.70263672 194.5 207.71777344 195.09765625 208.76367188 C195.70480469 209.83166016 196.31195313 210.89964844 196.9375 212 C202.02837014 220.89387134 207.19979079 229.728468 212.5 238.5 C218.42604476 248.31349889 224.20314552 258.20206607 229.90234375 268.1484375 C230.77246094 269.66630859 230.77246094 269.66630859 231.66015625 271.21484375 C232.2133252 272.1879248 232.76649414 273.16100586 233.33642578 274.16357422 C234.44665294 276.0565327 235.60203551 277.92370895 236.80029297 279.76220703 C237.35990723 280.62571777 237.91952148 281.48922852 238.49609375 282.37890625 C239.00197021 283.12857666 239.50784668 283.87824707 240.02905273 284.65063477 C241.35393298 287.85639857 240.90937979 289.68138883 240 293 C238.74755859 295.65527344 238.74755859 295.65527344 237.1484375 298.359375 C236.55144043 299.38047363 235.95444336 300.40157227 235.33935547 301.45361328 C234.69111816 302.5414209 234.04288086 303.62922852 233.375 304.75 C232.35905916 306.48081658 231.34313408 308.21164264 230.32815552 309.94302368 C229.26957476 311.74645278 228.20714365 313.54757691 227.14453125 315.34863281 C225.02063971 318.9559193 222.9277678 322.58050063 220.84375 326.2109375 C220.50872467 326.79427856 220.17369934 327.37761963 219.82852173 327.9786377 C218.22278264 330.77543811 216.61806896 333.57282682 215.01318359 336.37011719 C211.77959217 341.98499415 208.47534722 347.53124608 205 353 C201.35248225 351.78416075 201.14744257 350.99712003 199.35546875 347.71484375 C198.85096191 346.80436279 198.34645508 345.89388184 197.82666016 344.95581055 C197.2857373 343.95976807 196.74481445 342.96372559 196.1875 341.9375 C195.01327424 339.8168463 193.83744297 337.69708093 192.66015625 335.578125 C192.05445801 334.48435547 191.44875977 333.39058594 190.82470703 332.26367188 C187.99269899 327.19834092 185.06232003 322.19227026 182.125 317.1875 C177.24311545 308.84914331 172.38758987 300.49636133 167.5625 292.125 C166.64186768 290.52785156 166.64186768 290.52785156 165.70263672 288.8984375 C163.80138941 285.59917045 161.90068911 282.29958865 160 279 C157.58216338 274.8036869 155.16359338 270.60779716 152.74435425 266.41229248 C151.77393527 264.72901778 150.80407481 263.04542113 149.83422852 261.36181641 C149.24440186 260.33878418 148.6545752 259.31575195 148.046875 258.26171875 C147.52963867 257.36412842 147.01240234 256.46653809 146.47949219 255.54174805 C145.45173775 253.7760795 144.39259918 252.02845695 143.30957031 250.29614258 C142 248 142 248 142 246 C141.18583618 245.94392578 141.18583618 245.94392578 140.35522461 245.88671875 C132.99332784 245.27316469 125.82054356 243.89750486 118.59301758 242.41601562 C116.54287071 241.99597832 114.49132964 241.58337168 112.43945312 241.171875 C102.46954594 239.15651531 102.46954594 239.15651531 99 238 C107.4217172 252.81740149 115.89200621 267.59861753 124.59375 282.25390625 C128.56686921 288.94615841 132.5030756 295.65996157 136.4375 302.375 C136.79995819 302.99349823 137.16241638 303.61199646 137.53585815 304.24923706 C142.9329688 313.45978326 148.31592868 322.67852293 153.69116211 331.90185547 C158.64372147 340.39699289 163.61634485 348.8802837 168.59225464 357.36175537 C173.98984602 366.56226741 179.36936791 375.7730722 184.73095703 384.99462891 C187.93169124 390.48914544 191.16402443 395.96345691 194.42578125 401.421875 C195.17375602 402.67561295 195.92172158 403.92935641 196.66967773 405.18310547 C198.11606603 407.6070113 199.56827965 410.02729902 201.02368164 412.44580078 C201.67328857 413.5336084 202.32289551 414.62141602 202.9921875 415.7421875 C203.57339355 416.7101123 204.15459961 417.67803711 204.75341797 418.67529297 C206 421 206 421 206 423 C206.66 423 207.32 423 208 423 C208.26772217 422.28642334 208.53544434 421.57284668 208.8112793 420.83764648 C210.02635932 417.93707654 211.44250929 415.3175028 213.01953125 412.59765625 C213.62265137 411.55440186 214.22577148 410.51114746 214.84716797 409.4362793 C215.49572754 408.32293213 216.14428711 407.20958496 216.8125 406.0625 C217.49383319 404.88788158 218.17498299 403.71315675 218.85595703 402.53833008 C223.5076208 394.52286156 228.20398633 386.53386087 232.93164062 378.56298828 C236.07382656 373.26509439 239.19975931 367.95813414 242.30859375 362.640625 C242.68139465 362.00324905 243.05419556 361.36587311 243.43829346 360.70918274 C244.9183963 358.17835047 246.39844986 355.64749554 247.87542725 353.11483765 C252.80087942 344.66911625 257.84102412 336.30483995 263 328 C266.88889425 329.29629808 267.166712 330.6003561 269.08203125 334.16015625 C269.67773926 335.25279785 270.27344727 336.34543945 270.88720703 337.47119141 C271.20095276 338.05652649 271.51469849 338.64186157 271.83795166 339.24493408 C273.49138234 342.32863874 275.17509897 345.39576168 276.85546875 348.46484375 C277.19823853 349.09273804 277.5410083 349.72063232 277.89416504 350.36755371 C281.89651082 357.67898098 286.11445336 364.86060267 290.34301758 372.04321289 C291.40453555 373.84784103 292.46136724 375.65523687 293.51269531 377.46582031 C294.49876969 379.14596674 295.50848206 380.81247641 296.54199219 382.46386719 C297.24437012 383.62257324 297.24437012 383.62257324 297.9609375 384.8046875 C298.37907715 385.47226074 298.7972168 386.13983398 299.22802734 386.82763672 C300.62916365 390.77049278 299.47984422 393.98269285 297.74755859 397.65527344 C297.21984863 398.54762695 296.69213867 399.43998047 296.1484375 400.359375 C295.25415039 401.88884766 295.25415039 401.88884766 294.34179688 403.44921875 C293.69275391 404.53847656 293.04371094 405.62773438 292.375 406.75 C291.69497822 407.90697352 291.01595953 409.06453713 290.33789062 410.22265625 C288.92932676 412.62665148 287.51649359 415.02805773 286.10058594 417.42773438 C282.85983022 422.9283488 279.68333677 428.46603409 276.5 434 C275.25030108 436.16684034 274.00030011 438.3335065 272.75 440.5 C272.13125 441.5725 271.5125 442.645 270.875 443.75 C259 464.33333333 247.125 484.91666667 235.25 505.5 C234.63020264 506.57435303 234.01040527 507.64870605 233.37182617 508.75561523 C232.13253733 510.90364046 230.89311859 513.05159075 229.65356445 515.19946289 C226.71797433 520.28655549 223.78374328 525.37441847 220.85409546 530.4649353 C219.46671905 532.87543748 218.07860376 535.28551376 216.69042969 537.69555664 C215.70826185 539.40143968 214.72716615 541.10793986 213.74609375 542.81445312 C212.85664062 544.35842773 212.85664062 544.35842773 211.94921875 545.93359375 C211.42674561 546.84165771 210.90427246 547.74972168 210.3659668 548.68530273 C209.30022034 550.49126201 208.16319248 552.25521129 207 554 C203.1660942 552.7220314 202.89363185 551.52549332 200.99609375 548.03125 C200.42576416 546.99427979 199.85543457 545.95730957 199.26782227 544.88891602 C198.66381592 543.77057373 198.05980957 542.65223145 197.4375 541.5 C196.16545643 539.18543129 194.89201618 536.87162963 193.6171875 534.55859375 C192.99553711 533.42663574 192.37388672 532.29467773 191.73339844 531.12841797 C189.57495839 527.2328897 187.34137104 523.38845887 185.0625 519.5625 C180.90085157 512.5535449 176.81669965 505.5019648 172.75 498.4375 C167.85854676 489.94343701 162.94612699 481.4623443 158 473 C149.97710742 459.26957662 142.04141636 445.48921851 134.10449219 431.70898438 C127.43043688 420.12318234 120.74535916 408.54446647 114 397 C107.25298806 385.45270484 100.56660682 373.87097973 93.89111328 362.28222656 C90.76319854 356.85340062 87.63146269 351.42677993 84.5 346 C80.73636081 339.47766725 76.97355378 332.95486238 73.21484375 326.4296875 C67.16944841 315.93767906 61.10889781 305.45518324 55 295 C46.97732489 281.26944812 39.04141741 267.48922034 31.10449219 253.70898438 C24.43043688 242.12318234 17.74535916 230.54446647 11 219 C4.25298806 207.45270484 -2.43339318 195.87097973 -9.10888672 184.28222656 C-12.23680146 178.85340062 -15.36853731 173.42677993 -18.5 168 C-22.26363919 161.47766725 -26.02644622 154.95486238 -29.78515625 148.4296875 C-35.83055159 137.93767906 -41.89110219 127.45518324 -48 117 C-56.02267511 103.26944812 -63.95858259 89.48922034 -71.89550781 75.70898438 C-78.56956618 64.12317702 -85.25533274 52.54487447 -92 41 C-93.71954678 38.05333445 -95.43859017 35.10637632 -97.15722656 32.15917969 C-98.46045317 29.92497828 -99.76451589 27.69127787 -101.06933594 25.45800781 C-102.83443263 22.43585819 -104.59471168 19.41094389 -106.35205078 16.38427734 C-107.35802677 14.65419072 -108.36842969 12.92668063 -109.37890625 11.19921875 C-109.98347656 10.15636719 -110.58804688 9.11351562 -111.2109375 8.0390625 C-111.75024902 7.11303223 -112.28956055 6.18700195 -112.84521484 5.23291016 C-114 3 -114 3 -114 1 C-104.44773489 0.48760097 -94.90026068 0.09817106 -85.33720112 -0.13986778 C-80.89455375 -0.25420719 -76.46136552 -0.40873861 -72.02416992 -0.65966797 C-43.46679487 -2.23261194 -43.46679487 -2.23261194 -36.18252563 3.03900146 C-31.67580601 8.16018143 -29.17981554 13.96206145 -26.95608521 20.3538208 C-25.72661938 23.75664189 -24.09713712 26.50462102 -22.16015625 29.5546875 C-21.12694668 31.32774203 -20.09437853 33.1011705 -19.0625 34.875 C-17.88673659 36.89323956 -16.71095479 38.91146841 -15.53515625 40.9296875 C-14.65947998 42.43354004 -14.65947998 42.43354004 -13.76611328 43.96777344 C-10.84671978 48.9800581 -7.92318832 53.98992787 -5 59 C-1.53409768 64.94078976 1.93138086 70.88182426 5.39453125 76.82421875 C12.10941917 88.34425582 18.84139241 99.85410887 25.58840942 111.35534668 C31.05610857 120.67602544 36.50863592 130.0053771 41.94189453 139.34619141 C44.85552888 144.34887865 47.79059537 149.33747212 50.7578125 154.30859375 C51.36463867 155.32703369 51.97146484 156.34547363 52.59667969 157.39477539 C53.7575646 159.34026169 54.92211677 161.28356572 56.09082031 163.22436523 C56.60483398 164.08618408 57.11884766 164.94800293 57.6484375 165.8359375 C58.10395996 166.59438965 58.55948242 167.3528418 59.02880859 168.13427734 C60 170 60 170 60 172 C60.66 172 61.32 172 62 172 C62.26659424 171.13576416 62.53318848 170.27152832 62.80786133 169.38110352 C63.99019932 166.02779636 65.41819733 163.04579773 67.07421875 159.90234375 C67.65880859 158.77119141 68.24339844 157.64003906 68.84570312 156.47460938 C69.76998531 154.69955631 70.69437411 152.9245219 71.63110352 151.15600586 C72.54144738 149.43223415 73.4330945 147.69862933 74.32421875 145.96484375 C74.86135498 144.9399585 75.39849121 143.91507324 75.9519043 142.85913086 C77.15260391 139.58370735 77.1134035 138.26654856 76 135 C74.83322107 132.46099872 74.83322107 132.46099872 73.33203125 129.88671875 C72.77596191 128.89889404 72.21989258 127.91106934 71.64697266 126.89331055 C71.04159668 125.83539307 70.4362207 124.77747559 69.8125 123.6875 C69.1839209 122.57737549 68.5553418 121.46725098 67.90771484 120.32348633 C63.13467817 111.91920523 58.27662655 103.56463861 53.3894043 95.22631836 C48.91857905 87.59554081 44.50730897 79.93184709 40.125 72.25 C39.62495453 71.3735231 39.62495453 71.3735231 39.11480713 70.4793396 C37.4199651 67.5080802 35.72592016 64.53636728 34.03222656 61.56445312 C31.35588686 56.869064 28.67392321 52.17689267 25.99169922 47.48486328 C24.67211335 45.17645548 23.35362223 42.86743304 22.03564453 40.55810547 C18.89727596 35.0603299 15.75299786 29.5662251 12.58935547 24.08294678 C11.0860544 21.47662484 9.58587059 18.86851521 8.0859375 16.26025391 C7.36614718 15.01065389 6.64481007 13.76194347 5.921875 12.51416016 C4.92324127 10.79030594 3.93022596 9.06320061 2.9375 7.3359375 C2.36902344 6.35157715 1.80054688 5.3672168 1.21484375 4.35302734 C0 2 0 2 0 0 Z " fill="#5946EC" transform="translate(202,192)"/>
<path d="M0 0 C1.13956954 0.00436926 1.13956954 0.00436926 2.30216068 0.00882679 C3.10339137 0.00797237 3.90462206 0.00711794 4.73013246 0.00623763 C7.43567753 0.00458038 10.14116165 0.01010817 12.84670109 0.01555592 C14.7778585 0.01583776 16.70901602 0.01568011 18.64017338 0.01511341 C23.90028629 0.01482533 29.16037661 0.02072373 34.42048424 0.02768737 C39.91114241 0.03391919 45.40180104 0.03452457 50.89246219 0.03571278 C61.29764511 0.0388266 71.70281757 0.04704068 82.10799587 0.05706227 C93.95059766 0.06822182 105.79319993 0.07373346 117.63580567 0.0787577 C142.00420565 0.08922325 166.37259634 0.10682368 190.74098819 0.12908131 C189.45030267 4.1268961 188.06602639 7.58461252 185.90505069 11.19158131 C185.34173038 12.14162037 184.77841007 13.09165943 184.19801944 14.07048756 C183.59344913 15.0798235 182.98887882 16.08915943 182.36598819 17.12908131 C177.67606394 25.05476439 173.10314144 33.01831826 168.74098819 41.12908131 C164.05713818 49.81545129 159.17348311 58.36738511 154.16286319 66.86931568 C148.25568878 76.89860817 142.50334823 87.01610039 136.74098819 97.12908131 C127.38789955 97.15222083 118.0348207 97.17000464 108.68170971 97.18089348 C104.33899149 97.18611877 99.99629282 97.19321004 95.65358585 97.20452076 C91.46500433 97.21536216 87.27644164 97.22136082 83.08784717 97.22395855 C81.48741335 97.22581053 79.88698059 97.22942683 78.28655475 97.23481137 C76.05015159 97.2420384 73.81382688 97.24307154 71.57741398 97.2426067 C70.30278293 97.24482731 69.02815189 97.24704792 67.71489567 97.24933583 C64.74098819 97.12908131 64.74098819 97.12908131 62.74098819 96.12908131 C64.03738812 91.8439465 65.68330558 88.21142736 67.96364444 84.36345631 C68.58432804 83.30900318 69.20501163 82.25455006 69.84450382 81.16814381 C70.49096866 80.08275318 71.13743351 78.99736256 71.80348819 77.87908131 C73.08639745 75.70741727 74.3689672 73.53555262 75.65114444 71.36345631 C76.21970157 70.40664967 76.7882587 69.44984303 77.37404484 68.46404225 C78.20581026 67.04325202 79.0047167 65.6016243 79.74098819 64.12908131 C64.56098819 63.79908131 49.38098819 63.46908131 33.74098819 63.12908131 C24.93811754 77.96538017 16.24921358 92.86056898 7.64821476 107.81462818 C4.517339 113.25558688 1.37887014 118.6921612 -1.75901181 124.12908131 C-5.52270771 130.65138129 -9.28545805 137.17421898 -13.04416806 143.69939381 C-13.66920223 144.78397877 -14.29423641 145.86856373 -14.93821102 146.9860149 C-16.18382523 149.14751241 -17.42895047 151.30929179 -18.67356259 153.47136647 C-21.84988544 158.98186261 -25.04729532 164.47871221 -28.27854306 169.95720631 C-28.92557186 171.05661549 -29.57260067 172.15602467 -30.23923641 173.28874928 C-31.47400198 175.38408009 -32.71289875 177.47698359 -33.95652157 179.56706959 C-34.50751522 180.50276783 -35.05850888 181.43846607 -35.62619931 182.40251881 C-36.11201473 183.22155689 -36.59783016 184.04059498 -37.09836727 184.8844524 C-38.24155356 187.09531793 -39.03716909 188.65089222 -39.25901181 191.12908131 C-38.3296097 193.66554528 -38.3296097 193.66554528 -36.79416806 196.27751881 C-36.2446246 197.27702564 -35.69508114 198.27653248 -35.12888485 199.3063274 C-34.53245175 200.36158619 -33.93601864 201.41684498 -33.32151181 202.50408131 C-32.72701229 203.57867604 -32.13251278 204.65327076 -31.51999813 205.76042897 C-27.61667801 212.79413453 -23.63978145 219.78682842 -19.55198056 226.71501881 C-18.25901181 229.12908131 -18.25901181 229.12908131 -18.25901181 231.12908131 C-17.59901181 231.12908131 -16.93901181 231.12908131 -16.25901181 231.12908131 C-16.00321347 230.42960377 -15.74741513 229.73012623 -15.48386532 229.0094524 C-14.12614021 225.81661986 -12.47462015 223.00140146 -10.66135556 220.04314381 C-10.13535763 219.18113865 -10.13535763 219.18113865 -9.59873348 218.30171925 C-8.46809868 216.4503781 -7.33232407 214.60224959 -6.19651181 212.75408131 C-5.42208133 211.48773853 -4.64807483 210.22113636 -3.87449032 208.95427662 C-2.72749168 207.0760567 -1.58022517 205.19800725 -0.4314819 203.32085377 C3.67099703 196.61684272 7.70805581 189.8750773 11.74098819 183.12908131 C1.34598819 182.63408131 1.34598819 182.63408131 -9.25901181 182.12908131 C-8.34347162 177.5513804 -7.5114824 175.51099895 -5.11838681 171.69158131 C-4.46579891 170.6409148 -3.81321102 169.5902483 -3.14084774 168.50774342 C-2.08558895 166.83530567 -2.08558895 166.83530567 -1.00901181 165.12908131 C-0.28478703 163.97263215 0.43884011 162.81580852 1.16188663 161.65862232 C2.26667414 159.8907506 3.37207349 158.12329503 4.48055118 156.35773426 C6.88357673 152.52530229 9.23370884 148.66509373 11.55348819 144.78142506 C12.13582218 143.81398365 12.71815616 142.84654225 13.31813663 141.84978443 C14.41370863 140.02702892 15.50065306 138.1990533 16.57790226 136.36540943 C17.31605167 135.14821217 17.31605167 135.14821217 18.06911319 133.90642506 C18.4909589 133.19736012 18.9128046 132.48829518 19.34743351 131.75774342 C21.09441733 129.71602494 22.13342749 129.61858834 24.74098819 129.12908131 C27.71560549 129.0390615 30.6661102 129.00291427 33.64040226 129.01555592 C34.53831486 129.01540989 35.43622745 129.01526386 36.36134952 129.01511341 C39.32646207 129.01580955 42.29151164 129.02358802 45.25661319 129.03142506 C47.31355865 129.0332903 49.37050454 129.0347137 51.4274506 129.03571278 C56.83943005 129.03952961 62.25138263 129.0493528 67.66335148 129.06041676 C73.18662252 129.07064879 78.70989791 129.07521424 84.23317569 129.08025318 C95.06912499 129.09097579 105.90505436 129.10804224 116.74098819 129.12908131 C115.51142909 132.92366279 114.25672378 136.26574975 112.19411319 139.68376881 C111.6863837 140.53293873 111.17865421 141.38210865 110.65553898 142.257011 C110.10623722 143.1635442 109.55693546 144.0700774 108.99098819 145.00408131 C107.80541642 146.98544784 106.62054419 148.96723309 105.43630069 150.94939381 C104.82431827 151.97065357 104.21233585 152.99191334 103.58180851 154.04412037 C100.64281486 158.96946835 97.75271547 163.9229729 94.86598819 168.87908131 C94.28671573 169.87238453 93.70744327 170.86568775 93.1106171 171.88909107 C89.46517173 178.14708892 85.84382798 184.4186205 82.23268741 190.69646412 C75.81440624 201.85416662 69.30642007 212.95326916 62.72633976 224.01628834 C57.49456335 232.82535863 52.35502455 241.68476238 47.24709171 250.56609303 C43.08119509 257.80936541 38.89200157 265.03840284 34.67848819 272.25408131 C34.10396915 273.23803883 33.52945011 274.22199635 32.9375214 275.23577076 C30.62963617 279.18699753 28.32054496 283.13751891 26.01149601 287.08806568 C24.27491985 290.05973634 22.53900672 293.03179286 20.80348819 296.00408131 C20.22776066 296.98981129 19.65203312 297.97554127 19.05885929 298.99114186 C15.40917824 305.24737536 11.7881256 311.51944908 8.18044132 317.79997975 C0.20400063 331.6819746 -7.97098073 345.43117786 -16.25901181 359.12908131 C-20.14790605 357.83278323 -20.42572381 356.52872521 -22.34104306 352.96892506 C-22.93602597 351.87757252 -23.53100888 350.78621998 -24.14402157 349.66179615 C-24.61450421 348.78403523 -24.61450421 348.78403523 -25.09449154 347.88854176 C-26.76016306 344.78237525 -28.45675712 341.69313295 -30.14963681 338.60173756 C-30.49426464 337.97054005 -30.83889248 337.33934254 -31.19396359 336.68901783 C-34.45725483 330.72749457 -37.8702083 324.85859459 -41.32151181 319.00408131 C-46.67707447 309.89683738 -51.8744421 300.71168777 -57.01145321 291.47966725 C-60.98737234 284.35249691 -65.06074399 277.28953353 -69.19651181 270.25408131 C-74.83418042 260.65993226 -80.26395709 250.96281901 -85.64011532 241.22014576 C-89.87385344 233.56835395 -94.21183097 225.98590232 -98.63401181 218.44158131 C-99.20965878 217.45560963 -99.78530575 216.46963795 -100.37839657 215.45378834 C-102.95110848 211.05054302 -105.53895613 206.65838752 -108.16916806 202.28923756 C-109.01205384 200.86111048 -109.85453398 199.43274388 -110.69651181 198.00408131 C-111.0804913 197.38315602 -111.46447079 196.76223072 -111.86008602 196.12248951 C-114.28457856 191.9599991 -114.37416712 189.74129116 -113.25901181 185.12908131 C-112.09836727 182.65740162 -112.09836727 182.65740162 -110.62619931 180.20720631 C-110.07528622 179.27803395 -109.52437313 178.34886158 -108.95676571 177.39153248 C-108.35525692 176.39742359 -107.75374813 175.40331471 -107.13401181 174.37908131 C-105.84672047 172.21421183 -104.56029076 170.04882983 -103.27463681 167.88298756 C-102.60883602 166.76682057 -101.94303524 165.65065357 -101.25705868 164.50066334 C-98.07851497 159.13706503 -94.98488429 153.72531896 -91.88401181 148.31658131 C-86.76747895 139.41936243 -81.57252415 130.57253136 -76.32151181 121.75408131 C-70.87071715 112.59862541 -65.52261809 103.3927453 -60.25901181 94.12908131 C-54.9954045 84.86541553 -49.64721388 75.65959363 -44.19651181 66.50408131 C-36.42517849 53.45032253 -28.82497141 40.30266162 -21.25901181 27.12908131 C-18.80640567 22.85985318 -16.3522089 18.59154684 -13.89551693 14.32466847 C-12.90135909 12.59673245 -11.90914743 10.86767717 -10.91697079 9.13860279 C-10.32085995 8.10292164 -9.72474911 7.06724049 -9.11057431 6.00017506 C-8.58286434 5.08163746 -8.05515438 4.16309986 -7.51145321 3.21672779 C-5.36144693 -0.36703512 -4.12398192 0.01199154 0 0 Z " fill="#16B7FD" transform="translate(537.2590118050575,191.8709186911583)"/>
<path d="M0 0 C3.88889425 1.29629808 4.166712 2.6003561 6.08203125 6.16015625 C6.97559326 7.79911865 6.97559326 7.79911865 7.88720703 9.47119141 C8.20095276 10.05652649 8.51469849 10.64186157 8.83795166 11.24493408 C10.49138234 14.32863874 12.17509897 17.39576168 13.85546875 20.46484375 C14.36962341 21.40668518 14.36962341 21.40668518 14.89416504 22.36755371 C18.89651082 29.67898098 23.11445336 36.86060267 27.34301758 44.04321289 C28.40453555 45.84784103 29.46136724 47.65523687 30.51269531 49.46582031 C31.49876969 51.14596674 32.50848206 52.81247641 33.54199219 54.46386719 C34.01024414 55.23633789 34.47849609 56.00880859 34.9609375 56.8046875 C35.37907715 57.47226074 35.7972168 58.13983398 36.22802734 58.82763672 C37.62916365 62.77049278 36.47984422 65.98269285 34.74755859 69.65527344 C34.21984863 70.54762695 33.69213867 71.43998047 33.1484375 72.359375 C32.55224609 73.37902344 31.95605469 74.39867187 31.34179688 75.44921875 C30.69275391 76.53847656 30.04371094 77.62773438 29.375 78.75 C28.69497822 79.90697352 28.01595953 81.06453713 27.33789062 82.22265625 C25.92932676 84.62665148 24.51649359 87.02805773 23.10058594 89.42773438 C19.85983022 94.9283488 16.68333677 100.46603409 13.5 106 C12.25030108 108.16684034 11.00030011 110.3335065 9.75 112.5 C9.13125 113.5725 8.5125 114.645 7.875 115.75 C-4 136.33333333 -15.875 156.91666667 -27.75 177.5 C-28.3697168 178.57435303 -28.98943359 179.64870605 -29.62792969 180.75561523 C-30.86754312 182.90392287 -32.1077691 185.05187718 -33.34863281 187.19946289 C-36.28397683 192.28144145 -39.21285272 197.36684663 -42.12011719 202.4649353 C-43.49586791 204.87653083 -44.87511347 207.28611876 -46.25463867 209.69555664 C-47.22851818 211.3999055 -48.19732565 213.10714938 -49.16601562 214.81445312 C-49.75576172 215.84376953 -50.34550781 216.87308594 -50.953125 217.93359375 C-51.47036133 218.84165771 -51.98759766 219.74972168 -52.52050781 220.68530273 C-54 223 -54 223 -57 226 C-57 182.77 -57 139.54 -57 95 C-56.34 95 -55.68 95 -55 95 C-54.73227783 94.28642334 -54.46455566 93.57284668 -54.1887207 92.83764648 C-52.97364068 89.93707654 -51.55749071 87.3175028 -49.98046875 84.59765625 C-49.37734863 83.55440186 -48.77422852 82.51114746 -48.15283203 81.4362793 C-47.50427246 80.32293213 -46.85571289 79.20958496 -46.1875 78.0625 C-45.50616681 76.88788158 -44.82501701 75.71315675 -44.14404297 74.53833008 C-39.4923792 66.52286156 -34.79601367 58.53386087 -30.06835938 50.56298828 C-26.92617344 45.26509439 -23.80024069 39.95813414 -20.69140625 34.640625 C-20.1322049 33.68456108 -20.1322049 33.68456108 -19.56170654 32.70918274 C-18.0816037 30.17835047 -16.60155014 27.64749554 -15.12457275 25.11483765 C-10.19912058 16.66911625 -5.15897588 8.30483995 0 0 Z " fill="#11B8FD" transform="translate(465,520)"/>
<path d="M0 0 C48.51 0 97.02 0 147 0 C145.39686346 4.80940961 144.03685468 7.8760638 141.4375 12.0625 C140.62194111 13.39345634 139.80831545 14.72559825 138.99609375 16.05859375 C138.29589111 17.20690674 138.29589111 17.20690674 137.58154297 18.37841797 C134.3337794 23.76194455 131.17409863 29.19784022 128 34.625 C127.26464021 35.88106496 126.52920651 37.13708666 125.79370117 38.39306641 C124.28592783 40.96804666 122.77853857 43.54325113 121.27148438 46.11865234 C105.64379316 72.82391438 89.95139325 99.48642249 74 126 C70.35248225 124.78416075 70.14744257 123.99712003 68.35546875 120.71484375 C67.85096191 119.80436279 67.34645508 118.89388184 66.82666016 117.95581055 C66.2857373 116.95976807 65.74481445 115.96372559 65.1875 114.9375 C64.01327424 112.8168463 62.83744297 110.69708093 61.66015625 108.578125 C61.05445801 107.48435547 60.44875977 106.39058594 59.82470703 105.26367188 C56.99269899 100.19834092 54.06232003 95.19227026 51.125 90.1875 C46.24311537 81.84914318 41.38761283 73.4963481 36.5625 65.125 C35.94076904 64.04645752 35.31903809 62.96791504 34.6784668 61.85668945 C32.15307831 57.47454164 29.62880891 53.09174963 27.10449219 48.70898438 C25.21601511 45.43068947 23.32679702 42.15282242 21.4375 38.875 C20.82712891 37.81490723 20.21675781 36.75481445 19.58789062 35.66259766 C16.3973754 30.12815101 13.18721643 24.60606095 9.9453125 19.1015625 C9.29377197 17.99312988 8.64223145 16.88469727 7.97094727 15.74267578 C6.7226222 13.62162506 5.47065051 11.50271524 4.21459961 9.38623047 C3.6603833 8.44408691 3.10616699 7.50194336 2.53515625 6.53125 C1.79857788 5.28698242 1.79857788 5.28698242 1.04711914 4.01757812 C0 2 0 2 0 0 Z " fill="#5943EC" transform="translate(332,192)"/>
<path d="M0 0 C23.43 0 46.86 0 71 0 C69.39686346 4.80940961 68.03685468 7.8760638 65.4375 12.0625 C64.62194111 13.39345634 63.80831545 14.72559825 62.99609375 16.05859375 C62.52929199 16.82413574 62.06249023 17.58967773 61.58154297 18.37841797 C58.3337794 23.76194455 55.17409863 29.19784022 52 34.625 C51.26464021 35.88106496 50.52920651 37.13708666 49.79370117 38.39306641 C48.28592783 40.96804666 46.77853857 43.54325113 45.27148438 46.11865234 C24.17658381 82.16651377 24.17658381 82.16651377 14.56591797 98.36083984 C13.47524993 100.19902529 12.38582579 102.03794912 11.29736328 103.87744141 C9.61880107 106.71229387 7.9351408 109.5440543 6.25 112.375 C5.73590576 113.24455322 5.22181152 114.11410645 4.69213867 115.01000977 C4.22138916 115.79819092 3.75063965 116.58637207 3.265625 117.3984375 C2.85086914 118.09630371 2.43611328 118.79416992 2.00878906 119.51318359 C1.67588867 120.00383301 1.34298828 120.49448242 1 121 C0.67 121 0.34 121 0 121 C0 81.07 0 41.14 0 0 Z " fill="#0BBAFD" transform="translate(408,192)"/>
<path d="M0 0 C2.8127243 3.51590538 4.97166407 6.46059337 7.14453125 10.296875 C7.73218262 11.32651367 8.31983398 12.35615234 8.92529297 13.41699219 C9.54807129 14.51688477 10.17084961 15.61677734 10.8125 16.75 C12.14236304 19.08461174 13.47353358 21.41836695 14.80859375 23.75 C15.14969177 24.345849 15.49078979 24.941698 15.84222412 25.55560303 C18.26176111 29.76309369 20.75156368 33.92282673 23.28515625 38.0625 C23.97053467 39.1855957 24.65591309 40.30869141 25.36206055 41.46582031 C26.67985983 43.61585499 28.00526792 45.76124901 29.33911133 47.90136719 C29.93618896 48.87750977 30.5332666 49.85365234 31.1484375 50.859375 C31.67614746 51.70983398 32.20385742 52.56029297 32.74755859 53.43652344 C34.20952667 56.42885576 34.84420577 58.66568223 35 62 C33.8828125 64.83886719 33.8828125 64.83886719 32.125 67.796875 C31.4762793 68.90861084 30.82755859 70.02034668 30.15917969 71.16577148 C29.4397812 72.3607119 28.72004674 73.5554501 28 74.75 C27.27084907 75.98611116 26.54333053 77.22318657 25.81738281 78.46118164 C24.3119203 81.02486659 22.79828499 83.58346849 21.27929688 86.13916016 C19.05817173 89.88698401 16.88913841 93.66294281 14.734375 97.44921875 C14.05731785 98.63640816 13.38023499 99.82358291 12.703125 101.01074219 C11.42591241 103.25161167 10.14982387 105.49312229 8.875 107.73535156 C8.29234375 108.74952148 7.7096875 109.76369141 7.109375 110.80859375 C6.35092285 112.13588501 6.35092285 112.13588501 5.57714844 113.48999023 C4 116 4 116 0 121 C0 81.07 0 41.14 0 0 Z " fill="#0BBAFC" transform="translate(408,421)"/>
<path d="M0 0 C2 3 2 3 1.7578125 4.9375 C1.54898437 5.618125 1.34015625 6.29875 1.125 7 C0.35541784 9.57176824 0 11.26429417 0 14 C-0.66 14 -1.32 14 -2 14 C-2.33 13.34 -2.66 12.68 -3 12 C-3.99 12.33 -4.98 12.66 -6 13 C-6 19.6 -6 26.2 -6 33 C-6.66 33 -7.32 33 -8 33 C-8.33 33.99 -8.66 34.98 -9 36 C-11.83334537 33.52990403 -13.75098189 31.83191082 -14.84326172 28.18286133 C-15.037648 24.23548754 -14.103399 22.55999524 -12.0703125 19.19921875 C-11.43996094 18.14025391 -10.80960937 17.08128906 -10.16015625 15.99023438 C-9.48855469 14.90033203 -8.81695312 13.81042969 -8.125 12.6875 C-7.46113281 11.57826172 -6.79726563 10.46902344 -6.11328125 9.32617188 C-1.26680108 1.26680108 -1.26680108 1.26680108 0 0 Z " fill="#0EB9F7" transform="translate(438,354)"/>
<path d="M0 0 C0.66 0 1.32 0 2 0 C2 1.98 2 3.96 2 6 C2.66 6 3.32 6 4 6 C4.66 4.35 5.32 2.7 6 1 C7.65 1.33 9.3 1.66 11 2 C9.02 5.96 7.04 9.92 5 14 C3.68 14 2.36 14 1 14 C-0.98 10.04 -2.96 6.08 -5 2 C-3.68 1.67 -2.36 1.34 -1 1 C-0.67 0.67 -0.34 0.34 0 0 Z " fill="#1CB4F5" transform="translate(517,536)"/>
<path d="M0 0 C0.99 0.33 1.98 0.66 3 1 C3.33 0.67 3.66 0.34 4 0 C4.99 0.33 5.98 0.66 7 1 C3.01878493 9.22492784 -1.30287788 17.16219859 -6 25 C-6.33 24.34 -6.66 23.68 -7 23 C-7.66 23 -8.32 23 -9 23 C-9 22.34 -9 21.68 -9 21 C-8.34 21 -7.68 21 -7 21 C-6.34 19.02 -5.68 17.04 -5 15 C-4.34 15 -3.68 15 -3 15 C-3.03480469 14.33613281 -3.06960938 13.67226563 -3.10546875 12.98828125 C-3.37434095 4.21792619 -3.37434095 4.21792619 0 0 Z " fill="#1FB4F5" transform="translate(563,465)"/>
<path d="M0 0 C0.99 0.33 1.98 0.66 3 1 C1.73586702 3.44118791 0.46407987 5.87783192 -0.8125 8.3125 C-1.16892578 9.00279297 -1.52535156 9.69308594 -1.89257812 10.40429688 C-2.24384766 11.07138672 -2.59511719 11.73847656 -2.95703125 12.42578125 C-3.27647705 13.03848877 -3.59592285 13.65119629 -3.92504883 14.2824707 C-5.08538924 16.13643272 -6.40296797 17.51434256 -8 19 C-10.82535211 9.36056338 -10.82535211 9.36056338 -9 5 C-6.9714224 3.92476681 -5.02291631 3.25638383 -2.8125 2.640625 C-0.79191018 2.16237878 -0.79191018 2.16237878 0 0 Z " fill="#1BB5F7" transform="translate(482,613)"/>
<path d="M0 0 C23.1 0 46.2 0 70 0 C67.75 6.75 67.75 6.75 65 9 C64.375 6.6875 64.375 6.6875 64 4 C64.66 3.01 65.32 2.02 66 1 C44.22 1 22.44 1 0 1 C0 0.67 0 0.34 0 0 Z " fill="#1CB3F5" transform="translate(584,321)"/>
<path d="M0 0 C1.98 0 3.96 0 6 0 C7.2109375 1.609375 7.2109375 1.609375 8 4 C6.6640625 7.015625 6.6640625 7.015625 4.625 10.25 C3.95726562 11.32765625 3.28953125 12.4053125 2.6015625 13.515625 C2.07304688 14.33546875 1.54453125 15.1553125 1 16 C-1 13 -1 13 -1 11 C-0.01 11 0.98 11 2 11 C1.34 10.01 0.68 9.02 0 8 C-0.25760279 5.30547479 -0.08900053 2.71451625 0 0 Z " fill="#1EB2FC" transform="translate(617,369)"/>
<path d="M0 0 C0.94875 0.04125 1.8975 0.0825 2.875 0.125 C3.205 0.785 3.535 1.445 3.875 2.125 C2.87890625 4.2890625 2.87890625 4.2890625 1.4375 6.75 C0.96441406 7.56726563 0.49132812 8.38453125 0.00390625 9.2265625 C-0.36863281 9.85304688 -0.74117187 10.47953125 -1.125 11.125 C-2.775 11.125 -4.425 11.125 -6.125 11.125 C-6.01090407 9.66577307 -5.88334456 8.20759402 -5.75 6.75 C-5.68039062 5.93789063 -5.61078125 5.12578125 -5.5390625 4.2890625 C-4.83439539 0.60617971 -3.65257212 0.14610288 0 0 Z " fill="#1FB3F7" transform="translate(678.125,272.875)"/>
<path d="M0 0 C1.32 1.65 2.64 3.3 4 5 C-0.455 12.425 -0.455 12.425 -5 20 C-5.99 18.68 -6.98 17.36 -8 16 C-7.34 14.68 -6.68 13.36 -6 12 C-5.34 12 -4.68 12 -4 12 C-3.67 10.35 -3.34 8.7 -3 7 C-2.01 6.67 -1.02 6.34 0 6 C-0.2784375 4.7934375 -0.2784375 4.7934375 -0.5625 3.5625 C-0.706875 2.716875 -0.85125 1.87125 -1 1 C-0.67 0.67 -0.34 0.34 0 0 Z " fill="#22B2F4" transform="translate(713,209)"/>
<path d="M0 0 C1.32 0 2.64 0 4 0 C4.67578125 1.671875 4.67578125 1.671875 5 4 C3.85546875 6.578125 3.85546875 6.578125 2.1875 9.25 C1.64480469 10.14203125 1.10210938 11.0340625 0.54296875 11.953125 C0.03378906 12.62859375 -0.47539063 13.3040625 -1 14 C-1.66 14 -2.32 14 -3 14 C-4.07511878 9.60993163 -4.3257941 6.95377757 -2.0625 3.0625 C-1.381875 2.051875 -0.70125 1.04125 0 0 Z " fill="#1FB2F4" transform="translate(644,328)"/>
<path d="M0 0 C0.33 0.99 0.66 1.98 1 3 C1.99 2.67 2.98 2.34 4 2 C4.93423645 5.01031744 5.04449911 5.86650268 4 9 C3.34 8.67 2.68 8.34 2 8 C1.01 8 0.02 8 -1 8 C-2.52448631 10.9826906 -3.93940067 13.818202 -5 17 C-5.66 17 -6.32 17 -7 17 C-7.66 17.99 -8.32 18.98 -9 20 C-9.66 19.67 -10.32 19.34 -11 19 C-7.37 12.73 -3.74 6.46 0 0 Z " fill="#02050C" transform="translate(435,495)"/>
<path d="M0 0 C1.65 0.33 3.3 0.66 5 1 C2.36 5.95 -0.28 10.9 -3 16 C-4.21923618 11.12305528 -3.9621811 7.2851801 -2 2.625 C-1 1 -1 1 0 0 Z " fill="#1EB6F3" transform="translate(469,632)"/>
<path d="M0 0 C0.66 0.33 1.32 0.66 2 1 C1.67 3.31 1.34 5.62 1 8 C0.34 8 -0.32 8 -1 8 C-1 9.32 -1 10.64 -1 12 C-2.32 12 -3.64 12 -5 12 C-5.33 13.32 -5.66 14.64 -6 16 C-6.66 16 -7.32 16 -8 16 C-6.57250019 12.20950293 -4.83763458 8.72877544 -2.875 5.1875 C-2.33617187 4.21167969 -1.79734375 3.23585937 -1.2421875 2.23046875 C-0.83226562 1.49441406 -0.42234375 0.75835937 0 0 Z " fill="#04040C" transform="translate(701,240)"/>
<path d="M0 0 C0.66 0.66 1.32 1.32 2 2 C-0.97 6.95 -0.97 6.95 -4 12 C-6 10 -6 10 -6.046875 7.87109375 C-5.94890625 7.06800781 -5.8509375 6.26492188 -5.75 5.4375 C-5.66234375 4.63183594 -5.5746875 3.82617188 -5.484375 2.99609375 C-5.32453125 2.33738281 -5.1646875 1.67867188 -5 1 C-3 0 -3 0 0 0 Z " fill="#1FB2F4" transform="translate(638,345)"/>
<path d="M0 0 C-1.98 3.63 -3.96 7.26 -6 11 C-6.33 11 -6.66 11 -7 11 C-7.66 8.03 -8.32 5.06 -9 2 C-5.43554666 -1.30041976 -5.26882404 -1.05376481 0 0 Z " fill="#04040A" transform="translate(554,329)"/>
<path d="M0 0 C2 3 2 3 2.0625 5.8125 C0.57386379 10.27840863 -2.29045899 12.26869305 -6 15 C-6.66 14.67 -7.32 14.34 -8 14 C-5.36 9.38 -2.72 4.76 0 0 Z " fill="#04050D" transform="translate(514,351)"/>
<path d="M0 0 C0.66 0.33 1.32 0.66 2 1 C0.19350552 4.17012935 -1.62117335 7.33549532 -3.4375 10.5 C-4.2119043 11.85931641 -4.2119043 11.85931641 -5.00195312 13.24609375 C-5.49501953 14.10332031 -5.98808594 14.96054687 -6.49609375 15.84375 C-6.95169678 16.63974609 -7.4072998 17.43574219 -7.87670898 18.25585938 C-8.24739502 18.83142578 -8.61808105 19.40699219 -9 20 C-9.33 20 -9.66 20 -10 20 C-10.1875 17.1875 -10.1875 17.1875 -10 14 C-9.02297957 12.97753676 -8.01904235 11.98058793 -7 11 C-6.0585702 9.46454126 -5.16365136 7.89978226 -4.3125 6.3125 C-3.87550781 5.50425781 -3.43851562 4.69601562 -2.98828125 3.86328125 C-2.66214844 3.24839844 -2.33601563 2.63351562 -2 2 C-1.34 2 -0.68 2 0 2 C0 1.34 0 0.68 0 0 Z " fill="#02060E" transform="translate(443,342)"/>
<path d="M0 0 C2.64 0.33 5.28 0.66 8 1 C8.31147566 5.56830973 7.89884776 7.50007882 5 11 C4.16151196 9.54462432 3.32936066 8.08559627 2.5 6.625 C1.80390625 5.40683594 1.80390625 5.40683594 1.09375 4.1640625 C0 2 0 2 0 0 Z " fill="#020211" transform="translate(301,430)"/>
<path d="M0 0 C0.99 0.66 1.98 1.32 3 2 C2.82374165 4.37948772 2.30280227 5.70225849 0.59765625 7.37890625 C-0.90649092 8.62115486 -2.45129851 9.81376056 -4 11 C-3.67 11.66 -3.34 12.32 -3 13 C-4.65 12.67 -6.3 12.34 -8 12 C-4 6 -4 6 0 0 Z " fill="#02040C" transform="translate(412,307)"/>
<path d="M0 0 C0.33 0.66 0.66 1.32 1 2 C1.66 2.33 2.32 2.66 3 3 C2.34 3 1.68 3 1 3 C1 3.66 1 4.32 1 5 C1.66 5 2.32 5 3 5 C3 6.65 3 8.3 3 10 C2.236875 9.814375 1.47375 9.62875 0.6875 9.4375 C-2.08967375 8.77180827 -2.08967375 8.77180827 -5 10 C-3.66511872 6.40608886 -2.03977277 3.24509304 0 0 Z " fill="#1AB4F3" transform="translate(540,390)"/>
<path d="M0 0 C1.8125 0.0625 1.8125 0.0625 4 1 C6.25 4.0625 6.25 4.0625 8 7 C7.34 7.66 6.68 8.32 6 9 C5.01 9 4.02 9 3 9 C1.68 6.36 0.36 3.72 -1 1 C-0.67 0.67 -0.34 0.34 0 0 Z " fill="#03020C" transform="translate(392,584)"/>
<path d="M0 0 C0.66 0 1.32 0 2 0 C1.67 1.32 1.34 2.64 1 4 C1.66 4 2.32 4 3 4 C3.33 3.34 3.66 2.68 4 2 C4.33 2.66 4.66 3.32 5 4 C4.22265625 5.7265625 4.22265625 5.7265625 3.0625 7.625 C2.0415625 9.295625 2.0415625 9.295625 1 11 C-0.32 10.67 -1.64 10.34 -3 10 C-2.01 6.7 -1.02 3.4 0 0 Z " fill="#21B1F3" transform="translate(611,384)"/>
<path d="M0 0 C1.32 0.66 2.64 1.32 4 2 C2.4911799 5.23318592 1.29394556 7.35302722 -2 9 C-2.33 9.99 -2.66 10.98 -3 12 C-3 11.01 -3 10.02 -3 9 C-3.66 8.67 -4.32 8.34 -5 8 C-3.35 5.36 -1.7 2.72 0 0 Z " fill="#1EB5F4" transform="translate(618,255)"/>
<path d="M0 0 C1.12758089 3.38274266 0.81750262 4.76778223 0.0625 8.1875 C-0.13214844 9.08855469 -0.32679688 9.98960937 -0.52734375 10.91796875 C-0.68332031 11.60503906 -0.83929687 12.29210937 -1 13 C-2.98 13 -4.96 13 -7 13 C-3.535 6.565 -3.535 6.565 0 0 Z " fill="#04040C" transform="translate(534,527)"/>
<path d="M0 0 C0.103125 0.639375 0.20625 1.27875 0.3125 1.9375 C0.539375 2.618125 0.76625 3.29875 1 4 C1.99 4.33 2.98 4.66 4 5 C3 8 3 8 0.5625 9.25 C-2 10 -2 10 -4 9 C-2.94124926 5.59687262 -1.99097846 2.98646769 0 0 Z " fill="#1DB4F1" transform="translate(604,279)"/>
<path d="M0 0 C0.66 0.66 1.32 1.32 2 2 C-0.97 6.95 -0.97 6.95 -4 12 C-5.32 11.67 -6.64 11.34 -8 11 C-7.690625 10.401875 -7.38125 9.80375 -7.0625 9.1875 C-5.89790296 6.91043228 -5.89790296 6.91043228 -5 4 C-3.35 3.67 -1.7 3.34 0 3 C0 2.01 0 1.02 0 0 Z " fill="#0EB8FA" transform="translate(473,199)"/>
<path d="M0 0 C2.2109885 0.42793326 3.98119242 0.99059621 6 2 C5.67 4.64 5.34 7.28 5 10 C2.03134491 7.45543849 0.6380249 4.51005335 -1 1 C-0.67 0.67 -0.34 0.34 0 0 Z " fill="#03030C" transform="translate(169,201)"/>
<path d="M0 0 C1.27446435 3.82339305 0.34278151 5.27005137 -1 9 C-1.36106097 10.66088045 -1.70462173 12.32618981 -2 14 C-3.65 14 -5.3 14 -7 14 C-5.23570801 9.02790438 -2.6060834 4.56561939 0 0 Z " fill="#03050E" transform="translate(445,682)"/>
<path d="M0 0 C1.67542976 0.28604898 3.34385343 0.61781233 5 1 C5.33 1.99 5.66 2.98 6 4 C4.0625 6.6875 4.0625 6.6875 2 9 C2 8.01 2 7.02 2 6 C1.34 6 0.68 6 0 6 C-0.38218767 4.34385343 -0.71395102 2.67542976 -1 1 C-0.67 0.67 -0.34 0.34 0 0 Z " fill="#1EB5F5" transform="translate(490,592)"/>
<path d="M0 0 C3.25135812 3.56600568 4.7831713 6.12135417 5 11 C4.34 11.66 3.68 12.32 3 13 C1.32889958 10.03821227 0.67317248 7.62928808 0.375 4.25 C0.30023438 3.45078125 0.22546875 2.6515625 0.1484375 1.828125 C0.09945313 1.22484375 0.05046875 0.6215625 0 0 Z " fill="#1FB3F2" transform="translate(497,574)"/>
<path d="M0 0 C1.1171875 3.734375 1.1171875 3.734375 0.0625 6.125 C-0.288125 6.74375 -0.63875 7.3625 -1 8 C-1 8.66 -1 9.32 -1 10 C-1.66 10 -2.32 10 -3 10 C-3 11.32 -3 12.64 -3 14 C-3.99 14.33 -4.98 14.66 -6 15 C-7 12 -7 12 -5.56640625 9.08203125 C-4.90511719 8.00308594 -4.24382813 6.92414063 -3.5625 5.8125 C-2.90378906 4.72582031 -2.24507812 3.63914062 -1.56640625 2.51953125 C-1.04949219 1.68808594 -0.53257812 0.85664063 0 0 Z " fill="#03050F" transform="translate(593,426)"/>
<path d="M0 0 C2.79872437 2.52788007 4.45773019 4.20411134 5 8 C1.75791433 7.64950425 0.38472296 7.43778819 -1.8125 4.9375 C-2.4003125 3.9784375 -2.4003125 3.9784375 -3 3 C-2 1 -2 1 0 0 Z " fill="#03020D" transform="translate(372,264)"/>
<path d="M0 0 C0.66 0 1.32 0 2 0 C2.99 1.98 3.98 3.96 5 6 C4.01 6.99 3.02 7.98 2 9 C1.01 8.67 0.02 8.34 -1 8 C-1.33 7.01 -1.66 6.02 -2 5 C-1.67 4.34 -1.34 3.68 -1 3 C-0.34 3 0.32 3 1 3 C0.67 2.01 0.34 1.02 0 0 Z " fill="#1BB7F7" transform="translate(483,551)"/>
<path d="M0 0 C0.66 0 1.32 0 2 0 C2.33 1.65 2.66 3.3 3 5 C2.38125 5.061875 1.7625 5.12375 1.125 5.1875 C-1.27761141 5.828919 -1.27761141 5.828919 -2.25 8.5625 C-2.4975 9.366875 -2.745 10.17125 -3 11 C-2.34 11.33 -1.68 11.66 -1 12 C-1.99 12 -2.98 12 -4 12 C-4.9435441 9.46100862 -5.16906025 8.39090725 -4.07421875 5.859375 C-3.61660156 5.16328125 -3.15898438 4.4671875 -2.6875 3.75 C-2.23761719 3.04359375 -1.78773438 2.3371875 -1.32421875 1.609375 C-0.88722656 1.07828125 -0.45023438 0.5471875 0 0 Z " fill="#02050F" transform="translate(620,380)"/>
<path d="M0 0 C1.32 0.33 2.64 0.66 4 1 C2.35 4.3 0.7 7.6 -1 11 C-1.66 10.34 -2.32 9.68 -3 9 C-2.625 5.375 -2.625 5.375 -2 2 C-1.34 2 -0.68 2 0 2 C0 1.34 0 0.68 0 0 Z " fill="#040409" transform="translate(603,273)"/>
<path d="M0 0 C0.99 0 1.98 0 3 0 C4.125 5.625 4.125 5.625 3 9 C0.525 8.01 0.525 8.01 -2 7 C-1.34 4.69 -0.68 2.38 0 0 Z " fill="#0CBAF9" transform="translate(468,303)"/>
<path d="M0 0 C0.99 0 1.98 0 3 0 C4.1875 1.625 4.1875 1.625 5 4 C3.625 7.25 3.625 7.25 2 10 C0.4375 8.375 0.4375 8.375 -1 6 C-0.6875 2.75 -0.6875 2.75 0 0 Z " fill="#19B6F4" transform="translate(449,664)"/>
<path d="M0 0 C1.65 0 3.3 0 5 0 C5.33 0.99 5.66 1.98 6 3 C5.05125 3.268125 4.1025 3.53625 3.125 3.8125 C-0.25267273 4.74986588 -0.25267273 4.74986588 -2 8 C-2.66 7.67 -3.32 7.34 -4 7 C-4 6.01 -4 5.02 -4 4 C-3.34 4 -2.68 4 -2 4 C-1.34 2.68 -0.68 1.36 0 0 Z " fill="#04040E" transform="translate(409,540)"/>
<path d="M0 0 C0.99 0.66 1.98 1.32 3 2 C2.01 3.485 2.01 3.485 1 5 C1.99 5.66 2.98 6.32 4 7 C3.67 7.66 3.34 8.32 3 9 C0.69 8.67 -1.62 8.34 -4 8 C-2.68 5.36 -1.36 2.72 0 0 Z " fill="#03050C" transform="translate(604,407)"/>
<path d="M0 0 C0.99 0.33 1.98 0.66 3 1 C0.69 4.96 -1.62 8.92 -4 13 C-6 10 -6 10 -6 8 C-5.01 8 -4.02 8 -3 8 C-3 7.01 -3 6.02 -3 5 C-2.34 5 -1.68 5 -1 5 C-0.67 3.35 -0.34 1.7 0 0 Z " fill="#23B2EE" transform="translate(622,372)"/>
<path d="M0 0 C3 1 3 1 4.16796875 2.84765625 C4.50441406 3.57855469 4.84085937 4.30945313 5.1875 5.0625 C5.53167969 5.79597656 5.87585938 6.52945313 6.23046875 7.28515625 C6.48441406 7.85105469 6.73835938 8.41695312 7 9 C6.01 9 5.02 9 4 9 C3.67 8.01 3.34 7.02 3 6 C2.01 5.67 1.02 5.34 0 5 C0 3.35 0 1.7 0 0 Z " fill="#02030C" transform="translate(337,205)"/>
<path d="M0 0 C0.66 0.66 1.32 1.32 2 2 C-0.97 6.95 -0.97 6.95 -4 12 C-4.66 10.68 -5.32 9.36 -6 8 C-5.01 8 -4.02 8 -3 8 C-3.061875 7.236875 -3.12375 6.47375 -3.1875 5.6875 C-3 3 -3 3 -1.5 1.1875 C-1.005 0.795625 -0.51 0.40375 0 0 Z " fill="#20B2F0" transform="translate(539,515)"/>
<path d="M0 0 C1 4 1 4 0 6 C-0.66 6 -1.32 6 -2 6 C-1.67 7.32 -1.34 8.64 -1 10 C-1.99 10 -2.98 10 -4 10 C-4 10.99 -4 11.98 -4 13 C-4.99 12.67 -5.98 12.34 -7 12 C-4.69 8.04 -2.38 4.08 0 0 Z " fill="#03050F" transform="translate(642,342)"/>
<path d="M0 0 C0.66 0.33 1.32 0.66 2 1 C2 1.66 2 2.32 2 3 C1.34 3 0.68 3 0 3 C0 4.32 0 5.64 0 7 C-0.66 7 -1.32 7 -2 7 C-2.66 9.31 -3.32 11.62 -4 14 C-4.99 14 -5.98 14 -7 14 C-5.23570801 9.02790438 -2.6060834 4.56561939 0 0 Z " fill="#1AB4EF" transform="translate(485,272)"/>
<path d="M0 0 C0.99 0.99 1.98 1.98 3 3 C2.01 4.98 1.02 6.96 0 9 C-0.33 8.01 -0.66 7.02 -1 6 C-1.99 6.33 -2.98 6.66 -4 7 C-4.33 5.68 -4.66 4.36 -5 3 C-4.67 3.66 -4.34 4.32 -4 5 C-3.34 5 -2.68 5 -2 5 C-1.34 3.35 -0.68 1.7 0 0 Z " fill="#14B6F5" transform="translate(461,216)"/>
<path d="M0 0 C2.52349243 3.12432397 4.27256146 6.38060496 6 10 C3.53199953 8.84826645 1.95216435 7.95216435 0 6 C-0.99 6.495 -0.99 6.495 -2 7 C-2 5.35 -2 3.7 -2 2 C-1.34 2 -0.68 2 0 2 C0 1.34 0 0.68 0 0 Z " fill="#02030F" transform="translate(394,526)"/>
<path d="M0 0 C0.99 0.33 1.98 0.66 3 1 C3 1.99 3 2.98 3 4 C3.66 4.33 4.32 4.66 5 5 C4.34 5 3.68 5 3 5 C3 5.66 3 6.32 3 7 C1.02 7 -0.96 7 -3 7 C-1.125 2.25 -1.125 2.25 0 0 Z " fill="#04060C" transform="translate(441,257)"/>
<path d="M0 0 C0.66 0.99 1.32 1.98 2 3 C1.34 3 0.68 3 0 3 C0.33 4.65 0.66 6.3 1 8 C0.01 8.33 -0.98 8.66 -2 9 C-3.68538601 10.99665314 -3.68538601 10.99665314 -5 13 C-5.33 12.34 -5.66 11.68 -6 11 C-4.78515625 8.3984375 -4.78515625 8.3984375 -3.0625 5.375 C-2.21365234 3.87066406 -2.21365234 3.87066406 -1.34765625 2.3359375 C-0.90292969 1.56507813 -0.45820313 0.79421875 0 0 Z " fill="#02060E" transform="translate(483,616)"/>
<path d="M0 0 C1.32 0.33 2.64 0.66 4 1 C2.8141763 4.37503669 1.72426311 6.64722731 -1 9 C-1.625 6.1875 -1.625 6.1875 -2 3 C-1.34 2.01 -0.68 1.02 0 0 Z " fill="#050409" transform="translate(426,366)"/>
<path d="M0 0 C2.31 0 4.62 0 7 0 C6.01 1.98 5.02 3.96 4 6 C3.34 6 2.68 6 2 6 C0 3 0 3 0 0 Z " fill="#1FB2F3" transform="translate(625,360)"/>
<path d="M0 0 C2.64 0 5.28 0 8 0 C7.01 2.31 6.02 4.62 5 7 C3 4 3 4 3 2 C2.01 2.33 1.02 2.66 0 3 C0 2.01 0 1.02 0 0 Z " fill="#01040E" transform="translate(610,255)"/>
<path d="M0 0 C2.2477975 2.05233685 3.0022242 3.00667261 4 6 C-0.75 7 -0.75 7 -3 7 C-1.125 1.125 -1.125 1.125 0 0 Z " fill="#03040B" transform="translate(244,465)"/>
<path d="M0 0 C0.66 0.66 1.32 1.32 2 2 C0.35 4.97 -1.3 7.94 -3 11 C-3.33 10.01 -3.66 9.02 -4 8 C-4.66 7.34 -5.32 6.68 -6 6 C-5.34 5.34 -4.68 4.68 -4 4 C-3.67 4.33 -3.34 4.66 -3 5 C-2.67 4.01 -2.34 3.02 -2 2 C-1.34 2 -0.68 2 0 2 C0 1.34 0 0.68 0 0 Z " fill="#23B2F0" transform="translate(582,441)"/>
<path d="M0 0 C2.72426311 2.35277269 3.8141763 4.62496331 5 8 C3.35 8.33 1.7 8.66 0 9 C-1.125 2.25 -1.125 2.25 0 0 Z " fill="#02030D" transform="translate(362,669)"/>
<path d="M0 0 C0.66 0 1.32 0 2 0 C1.09456151 2.71631546 0.07525194 5.34771188 -1 8 C-1.66 8 -2.32 8 -3 8 C-3.33 8.99 -3.66 9.98 -4 11 C-4.66 10.67 -5.32 10.34 -6 10 C-5.05065487 8.32819726 -4.09026687 6.66266064 -3.125 5 C-2.59132813 4.071875 -2.05765625 3.14375 -1.5078125 2.1875 C-1.01023437 1.465625 -0.51265625 0.74375 0 0 Z " fill="#14B7EF" transform="translate(428,583)"/>
<path d="M0 0 C2.74277578 3.19990508 4.6302836 6.00499382 6 10 C3.625 9.4375 3.625 9.4375 1 8 C-0.3125 4.375 -0.3125 4.375 -1 1 C-0.67 0.67 -0.34 0.34 0 0 Z " fill="#030211" transform="translate(354,232)"/>
<path d="M0 0 C0.66 0 1.32 0 2 0 C2.66 1.65 3.32 3.3 4 5 C1.53721199 6.231394 -0.2795055 6.07159196 -3 6 C-1.125 1.125 -1.125 1.125 0 0 Z " fill="#21B3F7" transform="translate(700,232)"/>
<path d="M0 0 C0.99 0.66 1.98 1.32 3 2 C2.02526874 3.66926454 1.04510211 5.33535642 0.0625 7 C-0.48277344 7.928125 -1.02804687 8.85625 -1.58984375 9.8125 C-2.05519531 10.534375 -2.52054687 11.25625 -3 12 C-3.33 12 -3.66 12 -4 12 C-4 10.35 -4 8.7 -4 7 C-3.01 6.67 -2.02 6.34 -1 6 C-1.33 5.01 -1.66 4.02 -2 3 C-1.34 3 -0.68 3 0 3 C0 2.01 0 1.02 0 0 Z " fill="#16B9EF" transform="translate(434,492)"/>
<path d="M0 0 C0 1.32 0 2.64 0 4 C-0.66 4 -1.32 4 -2 4 C-2.33 4.66 -2.66 5.32 -3 6 C-3.99 4.02 -4.98 2.04 -6 0 C-3.50907189 -1.24546405 -2.58919267 -0.7767578 0 0 Z " fill="#06040E" transform="translate(412,417)"/>
<path d="M0 0 C1.485 0.99 1.485 0.99 3 2 C3.33 1.67 3.66 1.34 4 1 C4.99 2.32 5.98 3.64 7 5 C4.36 5 1.72 5 -1 5 C-0.67 3.35 -0.34 1.7 0 0 Z " fill="#18B2F1" transform="translate(529,369)"/>
<path d="M0 0 C0.66 0.66 1.32 1.32 2 2 C1.01 3.98 0.02 5.96 -1 8 C-1.66 8 -2.32 8 -3 8 C-3.33 6.35 -3.66 4.7 -4 3 C-2.68 2.01 -1.36 1.02 0 0 Z " fill="#030210" transform="translate(265,356)"/>
<path d="M0 0 C0.66 0 1.32 0 2 0 C4.125 4.625 4.125 4.625 3 8 C2.34 8 1.68 8 1 8 C1 7.34 1 6.68 1 6 C0.34 6 -0.32 6 -1 6 C-0.67 4.02 -0.34 2.04 0 0 Z " fill="#0DB9F6" transform="translate(457,320)"/>
<path d="M0 0 C3.09592835 3.5087188 4.74194623 6.49197399 6 11 C4.02 11.99 4.02 11.99 2 13 C2.226875 12.2575 2.45375 11.515 2.6875 10.75 C3.3110679 7.96211139 3.3110679 7.96211139 1.5625 5.9375 C1.046875 5.298125 0.53125 4.65875 0 4 C0 2.68 0 1.36 0 0 Z " fill="#020111" transform="translate(265,304)"/>
<path d="M0 0 C0.33 0.66 0.66 1.32 1 2 C1.66 2.33 2.32 2.66 3 3 C2.34 4.98 1.68 6.96 1 9 C-1 8 -1 8 -1.75 6.1875 C-2.05694702 3.50171361 -1.38111722 2.2747813 0 0 Z " fill="#030509" transform="translate(452,238)"/>
<path d="M0 0 C1.65 0 3.3 0 5 0 C4.67 1.32 4.34 2.64 4 4 C2.02 4.33 0.04 4.66 -2 5 C-2.33 4.01 -2.66 3.02 -3 2 C-2.01 2 -1.02 2 0 2 C0 1.34 0 0.68 0 0 Z " fill="#1EB4F4" transform="translate(723,192)"/>
<path d="M0 0 C1.32 1.65 2.64 3.3 4 5 C2.68 5.33 1.36 5.66 0 6 C0 6.99 0 7.98 0 9 C-0.99 8.67 -1.98 8.34 -3 8 C-2.67 6.02 -2.34 4.04 -2 2 C-1.34 2 -0.68 2 0 2 C0 1.34 0 0.68 0 0 Z " fill="#20B2F3" transform="translate(492,565)"/>
<path d="M0 0 C1.32 1.65 2.64 3.3 4 5 C3.34 5.66 2.68 6.32 2 7 C1.01 6.67 0.02 6.34 -1 6 C-1.33 5.01 -1.66 4.02 -2 3 C-2.66 2.34 -3.32 1.68 -4 1 C-2.68 0.67 -1.36 0.34 0 0 Z " fill="#5642E2" transform="translate(372,553)"/>
<path d="M0 0 C0.33 0 0.66 0 1 0 C1.25 2.75 1.25 2.75 1 6 C-1 8.375 -1 8.375 -3 10 C-3.66 9.67 -4.32 9.34 -5 9 C-3.35 6.03 -1.7 3.06 0 0 Z " fill="#04050E" transform="translate(614,390)"/>
<path d="M0 0 C0.66 0.66 1.32 1.32 2 2 C1.19185349 3.33597652 0.37836819 4.668725 -0.4375 6 C-0.88996094 6.7425 -1.34242188 7.485 -1.80859375 8.25 C-2.20175781 8.8275 -2.59492187 9.405 -3 10 C-3.33 10 -3.66 10 -4 10 C-4 8.02 -4 6.04 -4 4 C-3.01 4 -2.02 4 -1 4 C-0.67 2.68 -0.34 1.36 0 0 Z " fill="#03060F" transform="translate(536,354)"/>
<path d="M0 0 C0.66 0 1.32 0 2 0 C2.6875 2.3125 2.6875 2.3125 3 5 C1.5625 6.8125 1.5625 6.8125 0 8 C-1.125 5.6875 -1.125 5.6875 -2 3 C-1.34 2.01 -0.68 1.02 0 0 Z " fill="#02020D" transform="translate(218,281)"/>
<path d="M0 0 C0.99 0.33 1.98 0.66 3 1 C0.525 5.455 0.525 5.455 -2 10 C-2.66 10 -3.32 10 -4 10 C-2.66666667 6.66666667 -1.33333333 3.33333333 0 0 Z " fill="#13B7F2" transform="translate(445,245)"/>
<path d="M0 0 C0.33 0 0.66 0 1 0 C1 1.98 1 3.96 1 6 C-0.98 6.99 -0.98 6.99 -3 8 C-3 8.66 -3 9.32 -3 10 C-3.66 9.67 -4.32 9.34 -5 9 C-3.35 6.03 -1.7 3.06 0 0 Z " fill="#14B6EE" transform="translate(417,601)"/>
<path d="M0 0 C0 4.24645065 -1.81750806 6.38524772 -4 10 C-4.66 10 -5.32 10 -6 10 C-4.79157144 5.56909529 -3.48331435 3.01887244 0 0 Z " fill="#000512" transform="translate(425,586)"/>
<path d="M0 0 C0.66 0.33 1.32 0.66 2 1 C2.625 4.0625 2.625 4.0625 3 7 C1.68 7 0.36 7 -1 7 C-1.66 5.35 -2.32 3.7 -3 2 C-2.34 2 -1.68 2 -1 2 C-0.67 1.34 -0.34 0.68 0 0 Z " fill="#02020D" transform="translate(372,545)"/>
<path d="M0 0 C0.66 0.99 1.32 1.98 2 3 C0.515 5.475 0.515 5.475 -1 8 C-0.34 8.33 0.32 8.66 1 9 C-0.65 9 -2.3 9 -4 9 C-2.80100302 5.9168649 -1.52299523 2.93720508 0 0 Z " fill="#020612" transform="translate(562,479)"/>
<path d="M0 0 C0.66 0 1.32 0 2 0 C2.99 1.98 3.98 3.96 5 6 C3.68 6 2.36 6 1 6 C1 5.34 1 4.68 1 4 C-0.98 4.99 -0.98 4.99 -3 6 C-2.67 5.01 -2.34 4.02 -2 3 C-1.34 3 -0.68 3 0 3 C0 2.01 0 1.02 0 0 Z " fill="#03040D" transform="translate(475,476)"/>
<path d="M0 0 C0.99 0.33 1.98 0.66 3 1 C3.33 2.65 3.66 4.3 4 6 C3.34 6 2.68 6 2 6 C2 5.34 2 4.68 2 4 C1.34 4 0.68 4 0 4 C-0.33 4.99 -0.66 5.98 -1 7 C-1.66 6.67 -2.32 6.34 -3 6 C-2.01 4.02 -1.02 2.04 0 0 Z " fill="#03030C" transform="translate(580,448)"/>
<path d="M0 0 C0.66 0 1.32 0 2 0 C5.22265625 5.2734375 5.22265625 5.2734375 6 7 C5.67 7.66 5.34 8.32 5 9 C4.34 9 3.68 9 3 9 C2.01 6.03 1.02 3.06 0 0 Z " fill="#030410" transform="translate(443,420)"/>
<path d="M0 0 C0.66 0 1.32 0 2 0 C2.99 1.98 3.98 3.96 5 6 C2 6 2 6 -1 5 C-0.67 3.35 -0.34 1.7 0 0 Z " fill="#5840E1" transform="translate(386,385)"/>
<path d="M0 0 C0.99 0.33 1.98 0.66 3 1 C0.525 5.455 0.525 5.455 -2 10 C-2.66 10 -3.32 10 -4 10 C-2.125 4.25 -2.125 4.25 -1 2 C-0.34 2.33 0.32 2.66 1 3 C0.67 2.01 0.34 1.02 0 0 Z " fill="#02050E" transform="translate(453,322)"/>
<path d="M0 0 C0.93423645 3.01031744 1.04449911 3.86650268 0 7 C0.33 7.99 0.66 8.98 1 10 C0.01 10.495 0.01 10.495 -1 11 C-1.12375 10.360625 -1.2475 9.72125 -1.375 9.0625 C-1.58125 8.381875 -1.7875 7.70125 -2 7 C-2.66 6.67 -3.32 6.34 -4 6 C-2.68 4.02 -1.36 2.04 0 0 Z " fill="#00060E" transform="translate(463,220)"/>
<path d="M0 0 C4.04648443 1.34882814 4.95502599 3.34826069 7 7 C6.67 7.99 6.34 8.98 6 10 C3.25722422 6.80009492 1.3697164 3.99500618 0 0 Z " fill="#20B4ED" transform="translate(496,510)"/>
<path d="M0 0 C0.33 1.98 0.66 3.96 1 6 C-0.32 6 -1.64 6 -3 6 C-3.33 5.34 -3.66 4.68 -4 4 C-4.66 3.67 -5.32 3.34 -6 3 C-2.25 0 -2.25 0 0 0 Z " fill="#0CBDF9" transform="translate(455,424)"/>
<path d="M0 0 C0.33 0.99 0.66 1.98 1 3 C1.66 3 2.32 3 3 3 C2.67 4.32 2.34 5.64 2 7 C0.35 7 -1.3 7 -3 7 C-1.125 2.25 -1.125 2.25 0 0 Z " fill="#1AB4F0" transform="translate(549,375)"/>
<path d="M0 0 C4.75 0.875 4.75 0.875 7 2 C7 2.66 7 3.32 7 4 C4.03 3.67 1.06 3.34 -2 3 C-1.34 2.01 -0.68 1.02 0 0 Z " fill="#02030D" transform="translate(344,371)"/>
<path d="M0 0 C0.66 0 1.32 0 2 0 C1.44271087 3.34373475 0.64826111 6.03312999 -1 9 C-2.1875 7.3125 -2.1875 7.3125 -3 5 C-1.75 2.25 -1.75 2.25 0 0 Z " fill="#1DB5F2" transform="translate(545,343)"/>
<path d="M0 0 C0.99 0 1.98 0 3 0 C2.25 4.75 2.25 4.75 0 7 C0 6.34 0 5.68 0 5 C-0.99 4.67 -1.98 4.34 -3 4 C-2.34 4 -1.68 4 -1 4 C-0.67 2.68 -0.34 1.36 0 0 Z " fill="#21B4F6" transform="translate(683,265)"/>
<path d="M0 0 C3 1 3 1 4.1875 3.0625 C4.455625 3.701875 4.72375 4.34125 5 5 C4.01 5.66 3.02 6.32 2 7 C0.4375 4.625 0.4375 4.625 -1 2 C-0.67 1.34 -0.34 0.68 0 0 Z " fill="#03030C" transform="translate(377,697)"/>
<path d="M0 0 C1.32 0 2.64 0 4 0 C5.125 2.3125 5.125 2.3125 6 5 C5.01 6.485 5.01 6.485 4 8 C2.68 5.36 1.36 2.72 0 0 Z " fill="#1DB4F2" transform="translate(489,498)"/>
<path d="M0 0 C1.32 1.65 2.64 3.3 4 5 C3.01 6.485 3.01 6.485 2 8 C1.01 7.34 0.02 6.68 -1 6 C-0.67 4.02 -0.34 2.04 0 0 Z " fill="#10B8F3" transform="translate(428,455)"/>
<path d="M0 0 C0.66 0.66 1.32 1.32 2 2 C1.33333333 4 0.66666667 6 0 8 C-2.0625 8.6875 -2.0625 8.6875 -4 9 C-2.80100302 5.9168649 -1.52299523 2.93720508 0 0 Z " fill="#03050E" transform="translate(533,318)"/>
<path d="M0 0 C3 1 3 1 4.1875 3.0625 C4.455625 3.701875 4.72375 4.34125 5 5 C4.01 5.66 3.02 6.32 2 7 C0.4375 4.625 0.4375 4.625 -1 2 C-0.67 1.34 -0.34 0.68 0 0 Z " fill="#03030C" transform="translate(241,265)"/>
<path d="M0 0 C3 1 3 1 4.1875 3.0625 C4.455625 3.701875 4.72375 4.34125 5 5 C4.01 5.66 3.02 6.32 2 7 C0.4375 4.625 0.4375 4.625 -1 2 C-0.67 1.34 -0.34 0.68 0 0 Z " fill="#03030C" transform="translate(209,209)"/>
<path d="M0 0 C0.66 0.33 1.32 0.66 2 1 C2.33333333 2.33333333 2.66666667 3.66666667 3 5 C3.66 5.33 4.32 5.66 5 6 C3.02 6.99 3.02 6.99 1 8 C0.01 6.02 -0.98 4.04 -2 2 C-1.34 2 -0.68 2 0 2 C0 1.34 0 0.68 0 0 Z " fill="#5748DE" transform="translate(309,571)"/>
<path d="M0 0 C2 3 2 3 1.5625 5.5625 C1.376875 6.366875 1.19125 7.17125 1 8 C1.33 8.66 1.66 9.32 2 10 C0.35 9.67 -1.3 9.34 -3 9 C-2.01 6.03 -1.02 3.06 0 0 Z " fill="#18B3F2" transform="translate(461,526)"/>
<path d="M0 0 C0.66 0.33 1.32 0.66 2 1 C1.67 1.66 1.34 2.32 1 3 C1.66 3 2.32 3 3 3 C3 2.34 3 1.68 3 1 C3.66 1.33 4.32 1.66 5 2 C4.34 3.98 3.68 5.96 3 8 C1.10786631 5.61426621 -0.02391783 3.92824652 -1 1 C-0.67 0.67 -0.34 0.34 0 0 Z " fill="#5848DE" transform="translate(279,521)"/>
<path d="M0 0 C2.0625 2.3125 2.0625 2.3125 4 5 C3.67 5.99 3.34 6.98 3 8 C2.01 7.67 1.02 7.34 0 7 C-0.38133299 5.0085944 -0.71325582 3.00720923 -1 1 C-0.67 0.67 -0.34 0.34 0 0 Z " fill="#06040C" transform="translate(451,432)"/>
<path d="M0 0 C2 2 2 2 2.125 5.125 C2.08375 6.07375 2.0425 7.0225 2 8 C1.34 8 0.68 8 0 8 C0 7.34 0 6.68 0 6 C-0.99 5.67 -1.98 5.34 -3 5 C-2.01 3.35 -1.02 1.7 0 0 Z " fill="#1BB7F1" transform="translate(549,336)"/>
<path d="M0 0 C0.66 0.66 1.32 1.32 2 2 C0.515 4.475 0.515 4.475 -1 7 C-1.99 6.34 -2.98 5.68 -4 5 C-3.6875 3.0625 -3.6875 3.0625 -3 1 C-2.01 0.67 -1.02 0.34 0 0 Z " fill="#03060C" transform="translate(476,284)"/>
<path d="M0 0 C0.66 0 1.32 0 2 0 C2.33 1.65 2.66 3.3 3 5 C1.35 5.66 -0.3 6.32 -2 7 C-1.34 4.69 -0.68 2.38 0 0 Z " fill="#060508" transform="translate(708,228)"/>
<path d="M0 0 C0.99 0.33 1.98 0.66 3 1 C2.690625 1.598125 2.38125 2.19625 2.0625 2.8125 C0.89790296 5.08956772 0.89790296 5.08956772 0 8 C-0.99 7.34 -1.98 6.68 -3 6 C-2.01 4.02 -1.02 2.04 0 0 Z " fill="#02050B" transform="translate(724,199)"/>
<path d="M0 0 C0.66 0 1.32 0 2 0 C2.66 2.31 3.32 4.62 4 7 C3.01 7.33 2.02 7.66 1 8 C-0.42944945 5.64561267 -1.08661261 4.51967567 -0.625 1.75 C-0.41875 1.1725 -0.2125 0.595 0 0 Z " fill="#04BBFB" transform="translate(435,360)"/>
<path d="M0 0 C0.99 0 1.98 0 3 0 C2.1875 2.9375 2.1875 2.9375 1 6 C0.01 6.33 -0.98 6.66 -2 7 C-2.33 6.01 -2.66 5.02 -3 4 C-2.01 3.34 -1.02 2.68 0 2 C0 1.34 0 0.68 0 0 Z " fill="#0FB7EF" transform="translate(412,301)"/>
<path d="M0 0 C0.99 0.33 1.98 0.66 3 1 C1.35 3.64 -0.3 6.28 -2 9 C-2.33 7.68 -2.66 6.36 -3 5 C-2.34 5 -1.68 5 -1 5 C-0.67 3.35 -0.34 1.7 0 0 Z " fill="#030611" transform="translate(466,301)"/>
<path d="M0 0 C0.66 1.32 1.32 2.64 2 4 C1.34 4 0.68 4 0 4 C-0.33 5.32 -0.66 6.64 -1 8 C-1.99 7.67 -2.98 7.34 -4 7 C-2.68 4.69 -1.36 2.38 0 0 Z " fill="#01050F" transform="translate(555,280)"/>
<path d="M0 0 C2.25245881 2.68841859 3.88213958 4.64641875 5 8 C2.4636387 6.98545548 1.20648539 6.3146444 -0.3125 4 C-0.539375 3.34 -0.76625 2.68 -1 2 C-0.67 1.34 -0.34 0.68 0 0 Z " fill="#5A43DF" transform="translate(323,272)"/>
<path d="M0 0 C0.66 0.33 1.32 0.66 2 1 C-0.475 5.455 -0.475 5.455 -3 10 C-4 6 -4 6 -2.0625 2.75 C-1.381875 1.8425 -0.70125 0.935 0 0 Z " fill="#02060E" transform="translate(612,262)"/>
<path d="M0 0 C0.66 1.32 1.32 2.64 2 4 C0 6 0 6 -4 8 C-2.68 5.36 -1.36 2.72 0 0 Z " fill="#01060E" transform="translate(437,264)"/>
<path d="M0 0 C0.99 0.99 1.98 1.98 3 3 C1.68 4.65 0.36 6.3 -1 8 C-2.2077558 4.37673261 -1.54311128 3.35853631 0 0 Z " fill="#01060D" transform="translate(491,256)"/>
<path d="M0 0 C0.99 1.32 1.98 2.64 3 4 C2.01 4.99 1.02 5.98 0 7 C-0.99 6.01 -1.98 5.02 -3 4 C-2.67 3.34 -2.34 2.68 -2 2 C-1.67 2.33 -1.34 2.66 -1 3 C-0.67 2.01 -0.34 1.02 0 0 Z " fill="#5843DE" transform="translate(309,249)"/>
<path d="M0 0 C0.66 0.66 1.32 1.32 2 2 C0.68 4.31 -0.64 6.62 -2 9 C-2.12375 8.360625 -2.2475 7.72125 -2.375 7.0625 C-2.684375 6.0415625 -2.684375 6.0415625 -3 5 C-3.66 4.67 -4.32 4.34 -5 4 C-3.35 3.67 -1.7 3.34 0 3 C0 2.01 0 1.02 0 0 Z " fill="#16BAEE" transform="translate(473,199)"/>
<path d="M0 0 C0.66 0.33 1.32 0.66 2 1 C1.67 3.31 1.34 5.62 1 8 C0.67 7.34 0.34 6.68 0 6 C-0.99 5.67 -1.98 5.34 -3 5 C-2.01 3.35 -1.02 1.7 0 0 Z " fill="#02050E" transform="translate(437,696)"/>
<path d="M0 0 C0.33 0.66 0.66 1.32 1 2 C1.99 2.33 2.98 2.66 4 3 C3.34 3 2.68 3 2 3 C1.67 3.99 1.34 4.98 1 6 C-0.32 5.67 -1.64 5.34 -3 5 C-2.01 3.35 -1.02 1.7 0 0 Z " fill="#01060E" transform="translate(451,672)"/>
<path d="M0 0 C0.99 0 1.98 0 3 0 C3.66 0.66 4.32 1.32 5 2 C4.03114628 3.68496298 3.03013277 5.35178756 2 7 C1.67 7 1.34 7 1 7 C0.67 4.69 0.34 2.38 0 0 Z " fill="#1DB4F1" transform="translate(459,649)"/>
<path d="M0 0 C4.875 4.75 4.875 4.75 6 7 C5.34 7.66 4.68 8.32 4 9 C0 2.25 0 2.25 0 0 Z " fill="#584AE0" transform="translate(258,487)"/>
<path d="M0 0 C2.475 0.495 2.475 0.495 5 1 C5 1.99 5 2.98 5 4 C5.66 4.33 6.32 4.66 7 5 C6.01 5.33 5.02 5.66 4 6 C3.71125 5.195625 3.4225 4.39125 3.125 3.5625 C2.26737432 0.8673532 2.26737432 0.8673532 0 0 Z " fill="#0BBCFC" transform="translate(464,452)"/>
<path d="M0 0 C2 2 2 2 2.125 4.625 C2.08375 5.40875 2.0425 6.1925 2 7 C1.01 7.495 1.01 7.495 0 8 C-0.38063221 5.6739143 -0.71269945 3.33944736 -1 1 C-0.67 0.67 -0.34 0.34 0 0 Z " fill="#0BBBF7" transform="translate(461,314)"/>
<path d="M0 0 C0.66 0 1.32 0 2 0 C2 0.66 2 1.32 2 2 C2.66 2.33 3.32 2.66 4 3 C3.01 4.485 3.01 4.485 2 6 C1.34 6 0.68 6 0 6 C-0.38218767 4.34385343 -0.71395102 2.67542976 -1 1 C-0.67 0.67 -0.34 0.34 0 0 Z " fill="#0EB6F1" transform="translate(427,273)"/>
<path d="M0 0 C4.875 4.75 4.875 4.75 6 7 C5.34 7.66 4.68 8.32 4 9 C0 2.25 0 2.25 0 0 Z " fill="#01010F" transform="translate(290,215)"/>
</svg>
